HIERARCHY
ROOT Hips
{
    OFFSET 0.000000 0.000000 0.000000
    CHANNELS 6 Xposition Yposition Zposition Zrotation Xrotation Yrotation
    JOINT Spine
    {
        OFFSET -0.000000 8.104110 0.000000
        CHANNELS 3 Zrotation Xrotation Yrotation
        JOINT Spine1
        {
            OFFSET -0.000000 22.417536 0.000000
            CHANNELS 3 Zrotation Xrotation Yrotation
            JOINT Neck
            {
                OFFSET -0.000000 22.325472 2.029588
                CHANNELS 3 Zrotation Xrotation Yrotation
                JOINT Head
                {
                    OFFSET -0.000000 13.836284 -1.976612
                    CHANNELS 3 Zrotation Xrotation Yrotation
                    End Site
                    {
                        OFFSET -0.000000 24.707651 0.000000
                    }
                }
            }
            JOINT LeftShoulder
            {
                OFFSET 3.973640 20.379602 -0.279950
                CHANNELS 3 Zrotation Xrotation Yrotation
                JOINT LeftArm
                {
                    OFFSET 11.493720 0.000000 0.000000
                    CHANNELS 3 Zrotation Xrotation Yrotation
                    JOINT LeftForeArm
                    {
                        OFFSET 31.336695 0.000000 0.000000
                        CHANNELS 3 Zrotation Xrotation Yrotation
                        JOINT LeftHand
                        {
                            OFFSET 29.043781 0.000000 0.000000
                            CHANNELS 3 Zrotation Xrotation Yrotation
                            End Site
                            {
                                OFFSET 14.824592 0.000000 0.000000
                            }
                        }
                    }
                }
            }
            JOINT RightShoulder
            {
                OFFSET -3.921018 20.379602 -0.279950
                CHANNELS 3 Zrotation Xrotation Yrotation
                JOINT RightArm
                {
                    OFFSET -11.493720 0.000000 0.000000
                    CHANNELS 3 Zrotation Xrotation Yrotation
                    JOINT RightForeArm
                    {
                        OFFSET -31.336695 0.000000 0.000000
                        CHANNELS 3 Zrotation Xrotation Yrotation
                        JOINT RightHand
                        {
                            OFFSET -29.043781 0.000000 0.000000
                            CHANNELS 3 Zrotation Xrotation Yrotation
                            End Site
                            {
                                OFFSET -14.824592 0.000000 0.000000
                            }
                        }
                    }
                }
            }
        }
    }
    JOINT LeftUpLeg
    {
        OFFSET 9.883060 0.000000 0.000000
        CHANNELS 3 Zrotation Xrotation Yrotation
        JOINT LeftLeg
        {
            OFFSET -0.000000 -43.587502 0.000000
            CHANNELS 3 Zrotation Xrotation Yrotation
            JOINT LeftFoot
            {
                OFFSET -0.000000 -41.501083 0.000000
                CHANNELS 3 Zrotation Xrotation Yrotation
                JOINT LeftToeBase
                {
                    OFFSET -0.000000 -6.423989 14.824592
                    CHANNELS 3 Zrotation Xrotation Yrotation
                    End Site
                    {
                        OFFSET -0.000000 0.000000 3.953224
                    }
                }
            }
        }
    }
    JOINT RightUpLeg
    {
        OFFSET -9.883060 0.000000 0.000000
        CHANNELS 3 Zrotation Xrotation Yrotation
        JOINT RightLeg
        {
            OFFSET -0.000000 -43.587502 0.000000
            CHANNELS 3 Zrotation Xrotation Yrotation
            JOINT RightFoot
            {
                OFFSET -0.000000 -41.501083 0.000000
                CHANNELS 3 Zrotation Xrotation Yrotation
                JOINT RightToeBase
                {
                    OFFSET -0.000000 -6.423989 14.824592
                    CHANNELS 3 Zrotation Xrotation Yrotation
                    End Site
                    {
                        OFFSET -0.000000 0.000000 3.953224
                    }
                }
            }
        }
    }
}
MOTION
Frames:    11
Frame Time:    0.008333
-6.337077    83.416405    -9.991160    -0.451845    -3.767174    -170.098450    2.711231    -18.204090    -2.367695    6.576897    20.519464    -3.993833    -7.286991    12.048802    -3.171807    -1.004701    6.697713    -3.099710    -0.911544    9.980262    -1.138132    -62.437466    59.890186    -2.394577    3.682430    -19.877279    -42.502632    8.922930    -18.575094    -0.687383    0.673958    14.033288    -3.491436    48.315010    36.952106    14.489488    -8.646643    -23.763798    27.568165    -2.752990    -22.020201    9.681029    -1.534430    22.942667    6.474770    5.155247    15.715417    -15.781505    -4.924882    -17.650488    5.084648    0.000000    0.000000    0.000000    -14.169128    -41.870430    -10.102369    11.017395    42.748135    5.869459    -4.620410    -8.278960    -12.079511    0.000000    0.000000    0.000000    
-6.213480    83.419991    -10.567734    -0.414596    -4.263083    -170.357239    2.941831    -17.737268    -2.427186    6.908751    20.845369    -4.158600    -7.481765    11.667635    -3.048141    -1.376425    5.465231    -2.982960    -0.884028    9.767896    -1.441363    -61.553360    60.443977    -3.185319    4.437327    -20.631838    -43.508278    9.990662    -18.971321    -0.078263    0.507776    13.840518    -3.022716    47.603069    36.868855    15.189179    -8.865567    -24.096855    27.674046    -2.747593    -22.299852    9.713451    -1.463253    22.529551    6.463622    5.124079    16.118416    -15.545024    -5.049839    -16.847992    4.919106    0.000000    0.000000    0.000000    -13.989662    -42.245651    -9.881932    11.010704    43.258453    6.219008    -4.599473    -9.196434    -12.236481    0.000000    0.000000    0.000000    
-6.100051    83.504250    -11.159163    -0.419733    -4.891945    -170.589615    3.177186    -17.633095    -2.553062    7.212852    21.495245    -4.416785    -7.811864    11.457482    -2.821010    -1.767105    3.743343    -2.780585    -0.698711    9.585432    -1.855548    -60.901905    60.785995    -3.847725    5.397280    -21.410427    -44.426155    10.031123    -19.343458    -0.010685    0.199686    13.676167    -2.463455    46.996082    36.256920    16.108809    -8.945200    -24.136505    27.702721    -2.893787    -22.335543    9.904222    -1.462439    21.831579    6.615720    5.194383    16.634888    -15.298584    -5.465951    -15.655794    4.368843    0.000000    0.000000    0.000000    -13.963937    -42.616051    -9.741542    11.176046    43.481716    6.661541    -4.625726    -9.788095    -12.679920    0.000000    0.000000    0.000000    
-6.020365    83.605728    -11.742268    -0.515352    -5.546789    -170.747345    3.437706    -17.424206    -2.599323    7.208888    21.788774    -4.515459    -7.817688    11.386262    -2.758085    -2.285235    2.209321    -2.797011    -0.413446    9.338067    -2.200898    -60.196789    61.228508    -4.409993    6.111847    -22.083565    -45.472401    9.873940    -19.681700    0.078822    0.154971    13.595580    -2.099149    46.457432    35.711712    16.811649    -9.014651    -24.163441    27.807987    -2.813437    -22.333567    9.958735    -1.524552    21.062725    6.579825    5.186566    17.247019    -14.540914    -5.909683    -14.368052    3.497601    0.000000    0.000000    0.000000    -14.066641    -42.836418    -9.834936    11.071780    43.593548    7.479578    -4.720409    -10.654672    -13.081966    0.000000    0.000000    0.000000    
-5.924123    83.798553    -12.343609    -0.625911    -6.347523    -170.870377    3.400851    -17.279293    -2.594413    7.668625    21.811068    -4.590903    -7.959088    11.533813    -2.688946    -2.710406    0.881786    -2.812875    -0.597200    9.303775    -2.617090    -58.840569    61.924015    -5.285530    7.306917    -22.802217    -46.289032    9.586353    -19.892338    -0.046200    0.052564    13.540683    -1.724853    45.919338    35.551880    17.138376    -9.167212    -24.446791    27.960245    -3.065291    -22.596291    10.049307    -1.541057    20.041372    6.514825    5.115153    18.069580    -13.971128    -6.310780    -12.872447    2.895885    0.000000    0.000000    0.000000    -14.248366    -43.074722    -9.626449    11.407076    43.443798    7.666745    -4.913394    -11.319366    -13.505515    0.000000    0.000000    0.000000    
-5.856575    84.023003    -12.887994    -0.779693    -7.242953    -170.911102    3.552552    -17.255276    -2.506914    7.578838    21.797016    -4.507368    -7.826106    11.451774    -2.689787    -3.066334    0.075083    -2.882908    -0.181042    9.154572    -3.296527    -58.332230    62.283619    -5.778745    8.537187    -23.329025    -46.734570    8.986942    -19.930531    -0.512306    0.278539    13.363959    -1.553526    45.388618    35.410072    17.381409    -9.213125    -24.651751    28.131372    -3.060674    -22.782236    10.152772    -1.657839    18.714663    6.593617    5.190936    19.082855    -13.779366    -6.511306    -11.294671    2.506712    0.000000    0.000000    0.000000    -14.521463    -43.317608    -10.072073    11.085297    43.140606    8.001813    -4.964014    -11.867701    -13.223762    0.000000    0.000000    0.000000    
-5.774665    84.268585    -13.462003    -0.939336    -8.058887    -170.932465    3.658081    -17.022667    -2.434913    7.684707    21.516544    -4.444752    -7.992572    11.793497    -2.815552    -3.283190    -1.298684    -3.100737    -0.156352    9.300962    -3.639173    -56.565380    62.657204    -7.225663    9.414298    -23.808964    -47.460960    9.453636    -19.986649    -0.355166    0.332293    13.290146    -1.445746    44.915249    35.290462    17.736177    -9.271830    -24.883148    28.189348    -2.935484    -22.986435    10.065661    -1.690035    17.408710    6.322206    5.148697    20.298159    -13.551321    -7.014390    -9.648716    2.363104    0.000000    0.000000    0.000000    -14.760042    -43.496880    -10.454417    10.777965    42.797997    8.050628    -4.891662    -12.253680    -12.675464    0.000000    0.000000    0.000000    
-5.723728    84.521286    -14.036909    -1.193308    -8.759406    -171.032501    3.600336    -17.158831    -2.265289    7.916736    22.041042    -4.352777    -7.785088    11.487912    -2.892840    -3.945191    -1.994832    -3.293013    0.106492    8.850862    -4.080513    -55.504425    62.884541    -8.157475    10.543802    -24.124987    -48.071709    8.529558    -19.814484    -0.925666    0.178581    12.912953    -1.457812    44.478992    35.438980    18.098997    -9.325530    -25.144411    28.371283    -3.060754    -23.230360    9.888717    -1.829362    16.118214    6.368081    5.212181    21.654255    -13.397272    -7.172717    -7.933641    1.951730    0.000000    0.000000    0.000000    -15.095029    -43.629486    -10.599003    10.831203    42.563923    7.905275    -5.020814    -12.506547    -12.383288    0.000000    0.000000    0.000000    
-5.632196    84.816452    -14.599180    -1.285357    -9.584077    -170.954620    4.103042    -17.099180    -2.203460    7.306384    21.870380    -4.234018    -7.447578    11.789275    -2.889355    -4.549299    -3.114308    -3.465056    0.295080    8.959354    -4.175216    -53.981560    62.687275    -9.280261    11.670821    -24.334141    -48.666004    8.146294    -19.506304    -1.318552    0.505358    12.820351    -1.165612    44.152298    35.185238    18.390280    -9.474133    -25.107792    28.266541    -3.140473    -23.181536    10.215011    -1.727870    14.463943    6.355132    5.263658    23.262617    -12.883530    -7.578435    -6.101113    1.164345    0.000000    0.000000    0.000000    -15.342424    -43.854534    -11.009763    10.716686    42.340221    7.758458    -5.170735    -12.602686    -12.031432    0.000000    0.000000    0.000000    
-5.521875    85.120651    -15.172926    -1.428910    -10.435025    -170.902618    4.363243    -17.077507    -2.129526    6.916259    21.434429    -4.095419    -7.475841    12.179474    -2.926290    -4.599617    -3.659581    -3.559139    0.299239    9.075959    -4.561335    -53.307846    62.339413    -9.413353    12.937366    -24.577547    -49.007553    6.410995    -19.213736    -2.571328    1.042635    12.948546    -0.774162    43.395111    35.297771    18.584131    -9.680156    -25.295418    28.155832    -3.243864    -23.337547    10.058086    -1.666992    12.704735    6.472452    5.391436    25.078289    -12.843595    -7.629456    -4.381025    0.731309    0.000000    0.000000    0.000000    -15.533314    -44.103352    -11.266322    10.470872    42.067368    7.717297    -5.243835    -12.702928    -11.712192    0.000000    0.000000    0.000000    
-5.439449    85.432114    -15.700504    -1.626373    -11.116219    -170.995361    4.253348    -17.163593    -1.741153    7.145368    21.852657    -3.764400    -6.844075    12.094067    -3.236401    -5.417449    -4.489814    -4.080856    0.842585    8.828651    -5.341077    -52.941967    61.217369    -10.173481    13.671005    -24.325109    -49.769211    7.054845    -18.517809    -2.217845    1.001014    12.466850    -0.947547    43.257339    35.433128    18.594336    -9.755976    -25.548279    28.241407    -3.128791    -23.561628    10.107102    -1.720622    10.901394    6.640463    5.652462    27.357689    -14.388194    -7.687269    -3.267385    1.956288    0.000000    0.000000    0.000000    -15.584321    -44.302635    -11.304341    10.138148    41.835796    7.674811    -5.169980    -12.632664    -11.326121    0.000000    0.000000    0.000000    
